<?xml version="1.0" standalone="no"?>
<!DOCTYPE svg PUBLIC "-//W3C//DTD SVG 20010904//EN"
 "http://www.w3.org/TR/2001/REC-SVG-20010904/DTD/svg10.dtd">
<svg version="1.0" xmlns="http://www.w3.org/2000/svg"
 width="1536.000000pt" height="1536.000000pt" viewBox="0 0 1536.000000 1536.000000"
 preserveAspectRatio="xMidYMid meet">
<metadata>
Created by potrace 1.11, written by Peter Selinger 2001-2013
</metadata>
<g transform="translate(0.000000,1536.000000) scale(0.100000,-0.100000)"
fill="#000000" stroke="none">
<path d="M0 9951 l0 -2288 365 -1 365 0 0 1923 0 1923 2869 -1 c2544 -2 2870
0 2873 13 2 8 3 173 3 365 l-1 350 -3237 3 -3237 2 0 -2289z"/>
<path d="M5527 9864 c-1 -2 -27 -5 -57 -8 -30 -3 -69 -7 -87 -10 -125 -20
-311 -110 -408 -198 -16 -16 -34 -28 -38 -28 -5 0 -5 -4 -2 -10 3 -5 0 -10 -7
-11 -7 0 -33 -25 -58 -55 -25 -30 -50 -60 -55 -67 -13 -15 -80 -120 -81 -127
0 -3 -10 -25 -21 -50 -18 -41 -46 -117 -48 -130 0 -3 -4 -11 -8 -17 -5 -7 -6
-13 -4 -13 2 0 -1 -28 -8 -62 -6 -36 -11 -157 -11 -278 l1 -215 308 -2 307 -1
1 196 c0 228 2 249 28 307 42 95 152 158 276 158 68 0 165 -26 165 -45 0 -4 7
-8 15 -8 19 0 81 -85 96 -130 18 -60 23 -119 23 -290 0 -211 -9 -331 -29 -400
-18 -60 -119 -275 -142 -302 -8 -9 -15 -23 -17 -31 -1 -8 -6 -21 -12 -28 -5
-8 -16 -27 -25 -44 -37 -68 -134 -253 -152 -290 -11 -22 -22 -42 -26 -45 -3
-3 -27 -48 -54 -100 -26 -52 -68 -133 -93 -180 -25 -47 -73 -138 -106 -202
-34 -65 -66 -118 -71 -118 -6 0 -7 -3 -4 -6 6 -6 -16 -50 -99 -201 -13 -24
-20 -43 -16 -43 4 0 2 -4 -4 -8 -6 -4 -44 -72 -85 -152 -41 -80 -76 -147 -79
-150 -3 -3 -30 -52 -59 -110 -30 -58 -57 -107 -60 -110 -4 -3 -15 -25 -26 -50
-11 -25 -22 -47 -25 -50 -29 -27 -34 -73 -35 -352 -1 -253 1 -288 14 -292 9
-2 423 -3 921 -2 l905 1 1 66 c0 36 4 70 7 76 4 7 4 14 0 16 -5 3 -7 70 -6
149 3 160 3 149 1 241 -2 53 -5 67 -18 68 -8 0 -257 1 -552 1 -296 1 -538 5
-538 9 0 5 9 25 20 44 35 62 90 175 89 181 0 4 3 10 8 13 4 3 24 38 44 76 99
197 195 381 199 385 3 3 29 52 58 110 30 58 83 164 119 235 37 72 70 132 75
133 4 2 8 9 8 15 0 7 15 41 34 77 42 79 109 210 201 390 38 74 73 137 77 138
5 2 6 7 3 12 -3 5 2 16 11 24 8 9 13 16 10 16 -3 0 3 16 14 35 11 20 20 42 20
50 0 8 5 15 10 15 6 0 10 8 10 18 0 10 4 22 9 28 9 9 37 92 47 135 14 64 16
76 20 99 16 109 23 500 11 600 -30 232 -89 403 -195 560 -35 53 -160 170 -224
213 -32 20 -59 37 -62 37 -2 0 -25 10 -52 22 -27 12 -53 23 -59 24 -5 1 -30 7
-55 14 -54 16 -59 17 -135 24 -79 8 -155 13 -158 10z"/>
<path d="M2017 9818 c-9 -5 -12 -514 -12 -2157 0 -1183 2 -2150 5 -2149 3 1
15 -4 28 -11 12 -6 22 -8 22 -4 0 9 244 8 266 -1 8 -3 14 -2 14 2 0 4 55 6
122 5 68 -2 132 -1 143 2 20 4 20 12 19 1300 0 712 3 1295 8 1295 4 0 11 -12
14 -27 4 -16 9 -32 13 -38 3 -5 7 -19 8 -29 2 -11 7 -24 11 -30 5 -6 15 -31
22 -56 7 -25 18 -51 23 -57 5 -7 6 -13 2 -13 -4 0 0 -11 9 -25 9 -13 16 -30
16 -36 0 -16 62 -187 94 -261 9 -20 16 -42 16 -50 0 -8 5 -19 12 -26 7 -7 8
-12 4 -12 -5 0 -3 -7 4 -15 7 -8 9 -15 5 -15 -4 0 -3 -6 2 -12 9 -11 46 -111
48 -128 0 -3 3 -9 6 -15 4 -5 12 -28 19 -50 7 -22 17 -46 23 -52 5 -7 7 -13 3
-13 -3 0 4 -24 15 -52 11 -29 41 -109 65 -178 25 -69 49 -133 54 -142 6 -10
10 -27 10 -38 0 -11 5 -20 12 -20 6 0 9 -3 5 -6 -3 -4 0 -19 9 -35 8 -16 12
-29 9 -29 -3 0 4 -18 15 -40 11 -22 18 -40 14 -40 -3 0 1 -11 10 -25 9 -14 15
-25 12 -25 -2 0 7 -30 21 -67 26 -72 82 -227 165 -458 55 -153 66 -181 79
-207 5 -10 9 -22 9 -27 0 -5 5 -22 12 -38 6 -15 12 -32 14 -38 2 -5 16 -46 32
-90 l29 -80 46 -1 c25 -1 53 -4 61 -7 9 -4 16 -3 16 1 0 4 101 6 225 5 145 -1
227 2 231 9 3 5 6 29 5 51 -1 23 -2 49 -2 57 2 43 1 108 -2 130 -2 14 0 34 4
45 3 11 3 29 -1 40 -4 11 -5 24 -2 29 5 8 6 126 2 144 -1 4 -1 12 0 17 5 23 2
184 -5 194 -3 6 -3 11 2 11 4 0 7 19 5 42 -1 24 -3 50 -2 58 1 71 1 117 0 125
-1 6 -1 13 0 18 1 4 2 23 2 42 0 19 -1 38 -2 43 -1 4 -1 12 0 17 3 14 1 105
-3 135 -2 14 0 34 4 45 3 11 3 29 -1 40 -4 11 -5 24 -2 29 5 8 6 126 2 144 -1
4 -1 12 0 17 4 23 2 186 -3 191 -3 3 -2 18 2 32 4 15 4 39 0 55 -4 15 -4 27
-1 27 4 0 7 29 7 65 0 36 -3 65 -7 65 -4 0 -3 12 1 28 4 15 4 39 0 54 -4 15
-5 29 -2 32 3 3 5 29 4 58 -1 67 -1 91 2 211 1 53 -1 97 -5 97 -4 0 -3 12 1
28 4 15 4 39 0 55 -4 15 -4 27 -1 27 6 0 7 66 2 80 -2 3 -1 10 0 15 1 6 1 30
1 55 -1 25 -1 52 -1 60 -1 8 0 84 2 168 2 83 0 152 -4 152 -4 0 -3 12 1 28 4
15 4 39 0 55 -4 15 -4 27 -1 27 6 0 7 66 2 80 -2 3 -1 10 0 15 1 6 1 30 1 55
-1 25 -1 52 -1 60 -1 8 0 64 1 123 1 59 -1 110 -4 113 -3 3 -2 18 2 32 4 15 4
39 0 55 -4 15 -4 27 -1 27 4 0 7 29 7 65 0 36 -3 65 -7 65 -4 0 -3 12 1 28 4
15 4 39 0 54 -4 15 -5 29 -2 32 6 5 5 91 0 136 -2 14 0 34 4 45 3 11 3 29 -1
40 -4 11 -5 24 -2 29 5 9 6 67 2 84 -1 4 -3 14 -4 21 -1 13 -47 15 -304 15
-295 1 -303 0 -307 -19 -2 -11 -3 -597 -3 -1303 1 -705 -1 -1284 -4 -1287 -4
-5 -16 28 -98 260 -17 50 -35 99 -40 110 -11 25 -89 244 -95 265 -2 8 -4 16
-5 18 -2 1 -4 7 -5 12 -1 6 -4 12 -5 15 -1 3 -3 8 -5 13 -1 4 -5 14 -8 22 -9
21 -77 212 -82 230 -7 28 -66 185 -76 202 -5 10 -9 25 -9 33 0 8 -4 23 -9 33
-10 19 -27 65 -91 247 -23 66 -45 127 -48 135 -3 8 -6 17 -6 20 -1 3 -4 10 -8
15 -3 6 -10 26 -16 45 -6 19 -28 85 -50 145 -65 178 -222 616 -239 665 -9 25
-20 56 -26 70 -6 14 -11 28 -11 32 -1 3 -5 10 -9 14 -10 10 -563 12 -580 2z"/>
<path d="M6685 9822 c-20 -3 -21 -9 -20 -290 l0 -287 93 -2 c51 -1 100 -4 107
-7 8 -3 17 -1 20 4 3 5 15 6 29 0 12 -4 29 -4 36 0 8 5 17 7 22 4 4 -3 33 -4
65 -4 32 1 67 0 78 0 11 -1 27 -1 35 -1 130 2 212 1 219 -3 4 -3 8 -823 8
-1860 0 -1019 3 -1858 6 -1863 4 -6 128 -9 309 -9 l303 1 3 45 c1 25 2 54 1
65 0 11 0 76 0 145 1 160 1 146 -2 210 -1 30 1 63 6 74 7 13 6 16 -3 11 -9 -6
-9 -3 -1 13 6 12 8 23 4 25 -10 6 -9 149 1 165 4 7 4 12 -1 12 -10 0 -10 241
1 258 4 7 4 12 -1 12 -4 0 -7 69 -5 152 1 84 2 160 2 168 0 15 0 116 0 180 0
19 0 67 0 105 0 39 0 78 0 88 0 9 0 44 0 77 0 33 0 66 0 73 0 6 -1 37 -3 67
-1 30 1 61 6 68 6 7 6 12 0 12 -5 0 -7 37 -5 83 1 45 3 87 2 92 0 9 0 126 0
168 0 9 0 44 0 77 0 33 0 66 0 73 0 6 -1 37 -3 67 -1 30 1 61 6 68 5 6 6 12 1
12 -5 0 -8 62 -6 137 2 162 3 153 -1 223 -1 30 1 63 6 74 7 13 6 16 -3 11 -9
-6 -9 -3 -1 13 6 12 8 23 4 25 -10 6 -9 149 1 165 4 7 4 12 -1 12 -4 0 -8 56
-8 125 0 69 4 125 9 125 5 0 4 6 -1 13 -4 6 -8 41 -8 77 l1 65 42 0 c23 0 42
4 42 9 0 5 6 3 14 -3 9 -8 16 -8 20 -2 4 7 15 7 30 1 13 -5 26 -6 29 -4 3 3
76 5 163 4 88 -1 168 -1 179 -1 119 6 175 4 175 -4 0 -5 5 -4 12 3 12 12 16
567 4 579 -6 6 -1979 11 -2021 5z"/>
<path d="M8984 7665 l1 -2160 910 -1 c501 0 915 1 920 3 7 2 10 110 10 309 l0
306 -610 0 -610 0 -3 51 c-3 67 -3 65 1 112 2 22 -1 48 -5 58 -5 9 -5 17 -1
17 4 0 8 43 8 95 0 52 -4 95 -8 95 -5 0 -5 5 -1 12 11 17 11 108 1 108 -5 0
-5 5 -1 12 11 17 11 108 1 108 -5 0 -5 5 -1 12 11 17 11 108 0 108 -4 0 -4 6
1 13 5 6 8 32 6 57 -2 25 -3 51 -3 58 0 6 0 32 0 57 0 25 0 52 0 60 0 8 0 35
0 60 0 25 0 53 0 63 0 9 1 38 2 64 l1 46 496 1 c273 0 513 0 533 1 l37 0 -2
292 -2 292 -531 0 -530 0 0 108 c1 59 -3 108 -8 108 -5 0 -4 6 1 13 5 6 8 32
6 57 -2 25 -3 51 -3 58 0 6 0 32 0 57 0 25 0 52 0 60 0 8 0 35 0 60 0 25 0 52
0 60 0 8 0 35 0 60 0 25 0 52 0 60 0 8 0 35 0 60 0 25 0 51 0 58 0 6 1 30 3
52 2 22 -1 48 -5 58 -5 9 -5 17 -1 17 4 0 8 43 8 95 0 52 -4 95 -8 95 -5 0 -5
6 0 13 10 16 10 77 1 99 -7 14 1 17 58 20 36 1 74 0 84 -4 11 -4 22 -3 25 2 3
5 15 6 29 0 12 -4 29 -4 36 0 8 5 17 7 22 4 4 -3 33 -4 65 -4 32 1 67 0 78 0
11 -1 27 -1 35 -1 8 0 62 0 120 0 58 0 112 0 120 0 121 2 263 0 271 -4 5 -4 9
-2 9 3 0 9 51 7 77 -3 7 -2 15 0 18 5 3 5 18 5 34 0 16 -4 32 -6 35 -3 3 3 29
6 58 7 l53 1 0 283 c0 172 -4 286 -10 290 -5 3 -419 6 -921 6 l-911 1 1 -2160z"/>
<path d="M11208 9819 c-8 -5 -14 -50 -8 -74 1 -5 1 -14 0 -20 -5 -24 -1 -175
5 -185 3 -5 3 -10 -2 -10 -7 0 -9 -73 -2 -90 1 -3 0 -9 -1 -15 -3 -14 -1 -105
3 -135 2 -14 0 -34 -4 -45 -3 -11 -3 -30 2 -42 4 -12 4 -25 0 -28 -5 -3 -5
-21 -1 -40 4 -19 5 -35 1 -35 -3 0 -6 -16 -6 -35 0 -19 3 -35 7 -35 4 0 3 -13
-2 -29 -4 -15 -4 -34 0 -41 5 -7 5 -23 0 -34 -4 -12 -4 -31 1 -43 4 -12 4 -25
0 -28 -5 -3 -5 -21 -1 -40 4 -19 5 -35 1 -35 -3 0 -6 -16 -6 -35 0 -19 4 -35
8 -35 5 0 5 -5 1 -11 -6 -10 -10 -269 -4 -294 1 -5 1 -14 0 -20 -4 -22 -1
-116 5 -125 3 -6 3 -10 -2 -10 -7 0 -9 -73 -2 -90 1 -3 0 -9 -1 -15 -3 -14 -1
-105 3 -135 2 -14 0 -34 -4 -45 -3 -11 -3 -30 2 -42 4 -12 4 -25 0 -28 -5 -3
-5 -21 -1 -40 4 -19 5 -35 1 -35 -3 0 -6 -16 -6 -35 0 -19 3 -35 7 -35 4 0 3
-13 -2 -29 -4 -15 -4 -34 0 -41 5 -7 5 -23 0 -34 -4 -12 -4 -31 1 -43 4 -12 4
-25 0 -28 -5 -3 -5 -21 -1 -40 4 -19 5 -35 1 -35 -3 0 -6 -16 -6 -35 0 -19 4
-35 8 -35 5 0 5 -5 1 -11 -6 -10 -10 -269 -4 -294 1 -5 1 -14 0 -20 -4 -22 -1
-116 5 -125 3 -6 3 -10 -2 -10 -7 0 -9 -73 -2 -90 1 -3 0 -9 -1 -15 -3 -14 -1
-105 3 -135 2 -14 0 -34 -4 -45 -3 -11 -3 -30 2 -42 4 -12 4 -25 0 -28 -5 -3
-5 -21 -1 -40 4 -19 5 -35 1 -35 -3 0 -6 -16 -6 -35 0 -19 3 -35 7 -35 4 0 3
-13 -2 -29 -4 -15 -4 -34 0 -41 5 -7 5 -23 0 -34 -4 -12 -4 -31 1 -43 4 -12 4
-25 0 -28 -5 -3 -5 -21 -1 -40 4 -19 5 -35 1 -35 -3 0 -6 -16 -6 -35 0 -19 4
-35 8 -35 5 0 5 -5 1 -11 -6 -10 -10 -269 -4 -294 1 -5 2 -14 0 -20 -1 -5 -1
-35 0 -65 1 -75 1 -70 -2 -118 -2 -23 0 -42 4 -42 4 0 3 -12 -1 -28 -5 -15 -5
-37 0 -49 7 -19 15 -21 82 -20 40 0 79 -3 85 -7 7 -4 12 -4 12 1 0 4 98 7 218
6 l219 -2 0 1282 c1 705 2 1291 2 1302 1 18 3 18 11 3 10 -16 77 -199 108
-293 9 -27 18 -52 22 -55 3 -3 6 -9 7 -15 1 -5 20 -61 43 -124 23 -62 43 -119
44 -125 1 -6 10 -28 19 -50 9 -21 17 -41 17 -43 0 -3 18 -56 41 -117 22 -61
50 -136 61 -166 11 -30 24 -64 28 -75 5 -11 19 -49 31 -85 24 -68 64 -181 86
-237 3 -10 7 -20 8 -23 1 -3 4 -12 8 -20 13 -34 228 -626 232 -640 4 -15 44
-125 97 -265 16 -44 31 -84 32 -90 2 -5 7 -21 13 -35 5 -14 18 -48 28 -76 l18
-52 93 0 c51 0 97 -3 103 -7 6 -3 11 -3 11 2 0 4 84 7 187 6 l188 -1 0 2159
c0 1912 -2 2159 -15 2160 -8 0 -146 2 -307 2 l-291 2 -4 -25 c-2 -14 -3 -600
-2 -1302 0 -703 -1 -1278 -3 -1278 -3 0 -33 58 -33 65 -1 3 -3 10 -5 17 -3 7
-18 51 -35 98 -17 47 -32 90 -33 95 -3 11 -108 304 -133 370 -4 11 -8 23 -9
28 -2 4 -4 9 -5 12 -1 3 -3 8 -4 13 -1 7 -21 61 -36 97 -14 34 -51 139 -57
160 -2 11 -9 29 -14 40 -9 20 -77 211 -106 295 -8 25 -33 95 -55 155 -67 185
-84 233 -151 420 -36 99 -74 209 -86 245 -23 66 -30 85 -49 130 -10 23 -22 58
-28 85 -3 9 -57 157 -71 195 -4 8 -7 18 -8 23 -2 4 -4 9 -5 12 -1 3 -3 8 -4
13 -7 36 -14 37 -304 37 -156 0 -288 -3 -294 -6z"/>
<path d="M14658 7662 l-28 -3 0 -1692 c0 -931 0 -1787 0 -1904 l0 -212 -2807
0 c-1545 0 -2815 0 -2824 0 -14 -1 -16 -39 -16 -366 l0 -365 3189 0 3188 0 0
2270 c0 1809 -3 2270 -12 2271 -62 2 -669 3 -690 1z"/>
</g>
</svg>
