<svg width="24" height="42" viewBox="0 0 24 42" fill="none" xmlns="http://www.w3.org/2000/svg">
<path d="M1.60425 29.8572L11.9999 40.2528L22.3955 29.8572" stroke="#656565" stroke-width="2" stroke-linecap="square"/>
<path d="M12.1152 39.6596L12.1152 21.8267" stroke="#656565" stroke-width="2"/>
<path d="M11.1152 17.5337L11.1152 18.5337L13.1152 18.5337L13.1152 17.5337L11.1152 17.5337ZM13.1152 6.995L13.1152 5.995L11.1152 5.995L11.1152 6.995L13.1152 6.995ZM11.1152 9.62967L11.1152 10.6297L13.1152 10.6297L13.1152 9.62967L11.1152 9.62967ZM13.1152 14.899L13.1152 13.899L11.1152 13.899L11.1152 14.899L13.1152 14.899ZM11.1152 6.995L11.1152 9.62967L13.1152 9.62967L13.1152 6.995L11.1152 6.995ZM11.1152 14.899L11.1152 17.5337L13.1152 17.5337L13.1152 14.899L11.1152 14.899Z" fill="#656565"/>
</svg>
