<svg width="203" height="47" viewBox="0 0 203 47" fill="none" xmlns="http://www.w3.org/2000/svg">
<rect x="0.604492" y="0.321045" width="18.3357" height="36.5929" fill="#FA0B44"/>
<rect x="21.6334" y="10.0862" width="18.3357" height="36.5929" fill="#333333"/>
<path d="M59.9925 32.912H53.4925L52.2525 35.912H48.9325L55.1725 21.912H58.3725L64.6325 35.912H61.2325L59.9925 32.912ZM58.9725 30.452L56.7525 25.092L54.5325 30.452H58.9725ZM72.5897 36.152C71.1631 36.152 69.8697 35.8453 68.7097 35.232C67.5631 34.6053 66.6564 33.7453 65.9897 32.652C65.3364 31.5453 65.0097 30.2987 65.0097 28.912C65.0097 27.5253 65.3364 26.2853 65.9897 25.192C66.6564 24.0853 67.5631 23.2253 68.7097 22.612C69.8697 21.9853 71.1697 21.672 72.6097 21.672C73.8231 21.672 74.9164 21.8853 75.8897 22.312C76.8764 22.7387 77.7031 23.352 78.3697 24.152L76.2897 26.072C75.3431 24.9787 74.1697 24.432 72.7697 24.432C71.9031 24.432 71.1297 24.6253 70.4497 25.012C69.7697 25.3853 69.2364 25.912 68.8497 26.592C68.4764 27.272 68.2897 28.0453 68.2897 28.912C68.2897 29.7787 68.4764 30.552 68.8497 31.232C69.2364 31.912 69.7697 32.4453 70.4497 32.832C71.1297 33.2053 71.9031 33.392 72.7697 33.392C74.1697 33.392 75.3431 32.8387 76.2897 31.732L78.3697 33.652C77.7031 34.4653 76.8764 35.0853 75.8897 35.512C74.9031 35.9387 73.8031 36.152 72.5897 36.152ZM86.9647 36.152C85.5381 36.152 84.2447 35.8453 83.0847 35.232C81.9381 34.6053 81.0314 33.7453 80.3647 32.652C79.7114 31.5453 79.3847 30.2987 79.3847 28.912C79.3847 27.5253 79.7114 26.2853 80.3647 25.192C81.0314 24.0853 81.9381 23.2253 83.0847 22.612C84.2447 21.9853 85.5447 21.672 86.9847 21.672C88.1981 21.672 89.2914 21.8853 90.2647 22.312C91.2514 22.7387 92.0781 23.352 92.7447 24.152L90.6647 26.072C89.7181 24.9787 88.5447 24.432 87.1447 24.432C86.2781 24.432 85.5047 24.6253 84.8247 25.012C84.1447 25.3853 83.6114 25.912 83.2247 26.592C82.8514 27.272 82.6647 28.0453 82.6647 28.912C82.6647 29.7787 82.8514 30.552 83.2247 31.232C83.6114 31.912 84.1447 32.4453 84.8247 32.832C85.5047 33.2053 86.2781 33.392 87.1447 33.392C88.5447 33.392 89.7181 32.8387 90.6647 31.732L92.7447 33.652C92.0781 34.4653 91.2514 35.0853 90.2647 35.512C89.2781 35.9387 88.1781 36.152 86.9647 36.152ZM101.42 36.152C99.9664 36.152 98.6531 35.8387 97.4797 35.212C96.3197 34.5853 95.4064 33.7253 94.7397 32.632C94.0864 31.5253 93.7597 30.2853 93.7597 28.912C93.7597 27.5387 94.0864 26.3053 94.7397 25.212C95.4064 24.1053 96.3197 23.2387 97.4797 22.612C98.6531 21.9853 99.9664 21.672 101.42 21.672C102.873 21.672 104.18 21.9853 105.34 22.612C106.5 23.2387 107.413 24.1053 108.08 25.212C108.746 26.3053 109.08 27.5387 109.08 28.912C109.08 30.2853 108.746 31.5253 108.08 32.632C107.413 33.7253 106.5 34.5853 105.34 35.212C104.18 35.8387 102.873 36.152 101.42 36.152ZM101.42 33.392C102.246 33.392 102.993 33.2053 103.66 32.832C104.326 32.4453 104.846 31.912 105.22 31.232C105.606 30.552 105.8 29.7787 105.8 28.912C105.8 28.0453 105.606 27.272 105.22 26.592C104.846 25.912 104.326 25.3853 103.66 25.012C102.993 24.6253 102.246 24.432 101.42 24.432C100.593 24.432 99.8464 24.6253 99.1797 25.012C98.5131 25.3853 97.9864 25.912 97.5997 26.592C97.2264 27.272 97.0397 28.0453 97.0397 28.912C97.0397 29.7787 97.2264 30.552 97.5997 31.232C97.9864 31.912 98.5131 32.4453 99.1797 32.832C99.8464 33.2053 100.593 33.392 101.42 33.392ZM117.735 36.152C115.735 36.152 114.175 35.5987 113.055 34.492C111.948 33.3853 111.395 31.8053 111.395 29.752V21.912H114.635V29.632C114.635 32.1387 115.675 33.392 117.755 33.392C118.768 33.392 119.541 33.092 120.075 32.492C120.608 31.8787 120.875 30.9253 120.875 29.632V21.912H124.075V29.752C124.075 31.8053 123.515 33.3853 122.395 34.492C121.288 35.5987 119.735 36.152 117.735 36.152ZM140.116 21.912V35.912H137.456L130.476 27.412V35.912H127.276V21.912H129.956L136.916 30.412V21.912H140.116ZM146.329 24.552H141.849V21.912H154.049V24.552H149.569V35.912H146.329V24.552ZM164.309 32.912H157.809L156.569 35.912H153.249L159.489 21.912H162.689L168.949 35.912H165.549L164.309 32.912ZM163.289 30.452L161.069 25.092L158.849 30.452H163.289ZM183.241 21.912V35.912H180.581L173.601 27.412V35.912H170.401V21.912H173.081L180.041 30.412V21.912H183.241ZM189.454 24.552H184.974V21.912H197.174V24.552H192.694V35.912H189.454V24.552ZM199.213 36.072C198.666 36.072 198.206 35.8853 197.833 35.512C197.46 35.1387 197.273 34.672 197.273 34.112C197.273 33.5387 197.46 33.0787 197.833 32.732C198.206 32.372 198.666 32.192 199.213 32.192C199.76 32.192 200.22 32.372 200.593 32.732C200.966 33.0787 201.153 33.5387 201.153 34.112C201.153 34.672 200.966 35.1387 200.593 35.512C200.22 35.8853 199.76 36.072 199.213 36.072Z" fill="#333333"/>
</svg>
