<svg width="199" height="19" viewBox="0 0 199 19" fill="none" xmlns="http://www.w3.org/2000/svg">
<path d="M6.08287 3.71211H0.482874V0.412108H15.7329V3.71211H10.1329V17.9121H6.08287V3.71211ZM33.962 0.412108V17.9121H29.912V10.7371H21.962V17.9121H17.912V0.412108H21.962V7.31211H29.912V0.412108H33.962ZM51.6524 14.6621V17.9121H38.1024V0.412108H51.3274V3.66211H42.1274V7.46211H50.2524V10.6121H42.1274V14.6621H51.6524ZM66.0049 3.66211V8.28711H74.1049V11.5371H66.0049V17.9121H61.9549V0.412108H75.1799V3.66211H66.0049ZM86.2258 18.2121C84.4092 18.2121 82.7675 17.8204 81.3008 17.0371C79.8508 16.2538 78.7092 15.1788 77.8758 13.8121C77.0592 12.4288 76.6508 10.8788 76.6508 9.16211C76.6508 7.44544 77.0592 5.90378 77.8758 4.53711C78.7092 3.15378 79.8508 2.07044 81.3008 1.28711C82.7675 0.503776 84.4092 0.112109 86.2258 0.112109C88.0425 0.112109 89.6758 0.503776 91.1258 1.28711C92.5758 2.07044 93.7175 3.15378 94.5508 4.53711C95.3842 5.90378 95.8008 7.44544 95.8008 9.16211C95.8008 10.8788 95.3842 12.4288 94.5508 13.8121C93.7175 15.1788 92.5758 16.2538 91.1258 17.0371C89.6758 17.8204 88.0425 18.2121 86.2258 18.2121ZM86.2258 14.7621C87.2592 14.7621 88.1925 14.5288 89.0258 14.0621C89.8592 13.5788 90.5092 12.9121 90.9758 12.0621C91.4592 11.2121 91.7008 10.2454 91.7008 9.16211C91.7008 8.07878 91.4592 7.11211 90.9758 6.26211C90.5092 5.41211 89.8592 4.75378 89.0258 4.28711C88.1925 3.80378 87.2592 3.56211 86.2258 3.56211C85.1925 3.56211 84.2592 3.80378 83.4258 4.28711C82.5925 4.75378 81.9342 5.41211 81.4508 6.26211C80.9842 7.11211 80.7508 8.07878 80.7508 9.16211C80.7508 10.2454 80.9842 11.2121 81.4508 12.0621C81.9342 12.9121 82.5925 13.5788 83.4258 14.0621C84.2592 14.5288 85.1925 14.7621 86.2258 14.7621ZM109.995 17.9121L106.62 13.0371H106.42H102.895V17.9121H98.8446V0.412108H106.42C107.97 0.412108 109.311 0.670442 110.445 1.18711C111.595 1.70378 112.478 2.43711 113.095 3.38711C113.711 4.33711 114.02 5.46211 114.02 6.76211C114.02 8.06211 113.703 9.18711 113.07 10.1371C112.453 11.0704 111.57 11.7871 110.42 12.2871L114.345 17.9121H109.995ZM109.92 6.76211C109.92 5.77878 109.603 5.02878 108.97 4.51211C108.336 3.97878 107.411 3.71211 106.195 3.71211H102.895V9.81211H106.195C107.411 9.81211 108.336 9.54544 108.97 9.01211C109.603 8.47878 109.92 7.72878 109.92 6.76211ZM130.778 14.6621V17.9121H117.228V0.412108H130.453V3.66211H121.253V7.46211H129.378V10.6121H121.253V14.6621H130.778ZM139.751 18.2121C138.368 18.2121 137.026 18.0288 135.726 17.6621C134.443 17.2788 133.409 16.7871 132.626 16.1871L134.001 13.1371C134.751 13.6871 135.643 14.1288 136.676 14.4621C137.709 14.7954 138.743 14.9621 139.776 14.9621C140.926 14.9621 141.776 14.7954 142.326 14.4621C142.876 14.1121 143.151 13.6538 143.151 13.0871C143.151 12.6704 142.984 12.3288 142.651 12.0621C142.334 11.7788 141.918 11.5538 141.401 11.3871C140.901 11.2204 140.218 11.0371 139.351 10.8371C138.018 10.5204 136.926 10.2038 136.076 9.88711C135.226 9.57044 134.493 9.06211 133.876 8.36211C133.276 7.66211 132.976 6.72878 132.976 5.56211C132.976 4.54544 133.251 3.62878 133.801 2.81211C134.351 1.97878 135.176 1.32044 136.276 0.837109C137.393 0.353776 138.751 0.112109 140.351 0.112109C141.468 0.112109 142.559 0.245442 143.626 0.512108C144.693 0.778776 145.626 1.16211 146.426 1.66211L145.176 4.73711C143.559 3.82044 141.943 3.36211 140.326 3.36211C139.193 3.36211 138.351 3.54544 137.801 3.91211C137.268 4.27878 137.001 4.76211 137.001 5.36211C137.001 5.96211 137.309 6.41211 137.926 6.71211C138.559 6.99544 139.518 7.27878 140.801 7.56211C142.134 7.87878 143.226 8.19544 144.076 8.51211C144.926 8.82878 145.651 9.32878 146.251 10.0121C146.868 10.6954 147.176 11.6204 147.176 12.7871C147.176 13.7871 146.893 14.7038 146.326 15.5371C145.776 16.3538 144.943 17.0038 143.826 17.4871C142.709 17.9704 141.351 18.2121 139.751 18.2121ZM153.324 3.71211H147.724V0.412108H162.974V3.71211H157.374V17.9121H153.324V3.71211ZM176.303 17.9121L172.928 13.0371H172.728H169.203V17.9121H165.153V0.412108H172.728C174.278 0.412108 175.62 0.670442 176.753 1.18711C177.903 1.70378 178.787 2.43711 179.403 3.38711C180.02 4.33711 180.328 5.46211 180.328 6.76211C180.328 8.06211 180.012 9.18711 179.378 10.1371C178.762 11.0704 177.878 11.7871 176.728 12.2871L180.653 17.9121H176.303ZM176.228 6.76211C176.228 5.77878 175.912 5.02878 175.278 4.51211C174.645 3.97878 173.72 3.71211 172.503 3.71211H169.203V9.81211H172.503C173.72 9.81211 174.645 9.54544 175.278 9.01211C175.912 8.47878 176.228 7.72878 176.228 6.76211ZM191.693 11.7121V17.9121H187.643V11.6621L180.868 0.412108H185.168L189.843 8.18711L194.518 0.412108H198.493L191.693 11.7121Z" fill="white"/>
</svg>
